<svg xmlns="http://www.w3.org/2000/svg" viewBox="0 0 30 30" height="32" width="32">
  <path d="M9 3 A 1.0001 1.0001 0 1 0 9 5L12 5C13.104545 5 14 5.8954545 14 7L14 14L11 14 A 1.0001 1.0001 0 1 0 11 16L14 16L14 23C14 24.104545 13.104545 25 12 25L9 25 A 1.0001 1.0001 0 1 0 9 27L12 27C13.196286 27 14.264543 26.454192 15 25.611328C15.735457 26.454192 16.803714 27 18 27L21 27 A 1.0001 1.0001 0 1 0 21 25L18 25C16.895455 25 16 24.104545 16 23L16 16L19 16 A 1.0001 1.0001 0 1 0 19 14L16 14L16 7C16 5.8954545 16.895455 5 18 5L21 5 A 1.0001 1.0001 0 1 0 21 3L18 3C16.803714 3 15.735457 3.5458078 15 4.3886719C14.264543 3.5458078 13.196286 3 12 3L9 3 z" fill="#C00A0A" />
</svg>